<svg xmlns="http://www.w3.org/2000/svg" width="167.092" height="66.012" viewBox="0 0 44.21 17.466" focusable="false"><g class="_1yaCQlI" style="fill:#212121;fill-opacity:1"><path d="M86.641 45.601c-3.697 0-7.037-.408-10.012-3.385l3.834-3.833c1.942 1.938 4.467 2.208 6.269 2.208 2.031 0 4.148-.675 4.148-2.434 0-1.174-.629-1.985-2.479-2.167l-3.699-.36c-4.24-.404-6.854-2.253-6.854-6.586 0-4.869 4.282-7.485 9.064-7.485 3.653 0 6.72.632 8.976 2.75l-3.607 3.653c-1.354-1.217-3.43-1.576-5.459-1.576-2.344 0-3.336 1.082-3.336 2.254 0 .857.361 1.85 2.436 2.03l3.7.361c4.643.45 6.992 2.932 6.992 6.9-.002 5.187-4.424 7.67-9.973 7.67zM104.548 35.405c0 3.022 1.85 5.232 5.143 5.232 2.568 0 3.832-.722 5.32-2.21l3.564 3.472c-2.391 2.392-4.691 3.701-8.932 3.701-5.547 0-10.867-2.526-10.867-12.045 0-7.668 4.148-11.997 10.236-11.997 6.539 0 10.238 4.783 10.238 11.232v2.614h-14.702zm8.39-6.542c-.635-1.396-1.943-2.434-3.926-2.434-1.986 0-3.293 1.038-3.924 2.434-.361.859-.494 1.491-.541 2.529h8.932c-.046-1.038-.181-1.669-.541-2.529M127.685 35.405c0 3.022 1.852 5.232 5.141 5.232 2.572 0 3.836-.722 5.324-2.21l3.562 3.472c-2.391 2.392-4.691 3.701-8.93 3.701-5.549 0-10.871-2.526-10.871-12.045 0-7.668 4.15-11.997 10.24-11.997 6.539 0 10.238 4.783 10.238 11.232v2.614h-14.704zm8.39-6.542c-.633-1.396-1.941-2.434-3.924-2.434-1.986 0-3.295 1.038-3.926 2.434-.361.859-.496 1.491-.541 2.529h8.932c-.045-1.038-.181-1.669-.541-2.529M160.339 45.331l-5.77-9.792-2.486 2.802v6.99h-5.861V13.214h5.861v18.224l7.805-9.608h7.084l-8.391 9.473 9.02 14.029h-7.262z" style="fill:#212121;fill-opacity:1" transform="matrix(.26458 0 0 .26458 -.267 -.267)"/></g><path d="M-228.063 270.257a8.6 8.6 0 1 0 0 17.2 8.6 8.6 0 0 0 8.602-8.6 8.6 8.6 0 0 0-8.602-8.6m-6.813 10.642a.135.135 0 0 1-.136-.133.134.134 0 1 1 .135.133m0-1.806a.135.135 0 1 1 0-.27c.073 0 .133.06.133.135 0 .074-.06.135-.133.135m0-1.807a.135.135 0 1 1-.001-.268.135.135 0 0 1 0 .268m.926 3.681a.202.202 0 1 1 0-.403.202.202 0 0 1 0 .403m0-1.808a.201.201 0 1 1 0-.402.201.201 0 1 1 0 .402m0-1.806a.201.201 0 1 1 0-.403.201.201 0 0 1 0 .403m1.086 3.682a.27.27 0 1 1 0-.54.27.27 0 0 1 0 .54m0-1.809a.269.269 0 1 1-.001-.537.269.269 0 0 1 0 .537m0-1.806a.269.269 0 1 1-.002-.538.269.269 0 0 1 .002.538m1.141 3.681a.336.336 0 1 1-.001-.671.336.336 0 0 1 .001.671m0-1.807a.336.336 0 1 1 0-.671.336.336 0 0 1 0 .671m0-1.806a.336.336 0 1 1 0-.672.336.336 0 0 1 0 .672m1.337 3.68a.403.403 0 1 1 0-.805.403.403 0 0 1 0 .806m0-1.807a.403.403 0 1 1 0-.806.403.403 0 0 1 0 .806m0-1.806a.403.403 0 1 1 0-.807.403.403 0 0 1 0 .807m1.4 3.68a.47.47 0 1 1 0-.94.47.47 0 1 1 0 .94m0-1.806a.47.47 0 1 1 0-.94.47.47 0 0 1 0 .94m0-1.807a.47.47 0 1 1 0-.94.47.47 0 0 1 0 .94m1.664 7.296a.537.537 0 1 1 .001-1.074.537.537 0 0 1-.001 1.074m0-1.808a.538.538 0 1 1 .003-1.076.538.538 0 0 1-.003 1.076m0-1.807a.536.536 0 1 1 0-1.073.536.536 0 0 1 0 1.073m0-1.807a.537.537 0 1 1 0-1.074.537.537 0 0 1 0 1.074m0-1.807a.536.536 0 1 1 0-1.073.536.536 0 0 1 0 1.073m0-1.807a.537.537 0 1 1 .001-1.075.537.537 0 0 1-.001 1.075m0-1.808a.537.537 0 1 1 0-1.073.537.537 0 0 1 0 1.073m1.727 9.092a.593.593 0 1 1 .001-1.186.593.593 0 0 1 0 1.186m0-1.808a.593.593 0 1 1 .002-1.185.593.593 0 0 1-.002 1.185m0-1.807a.593.593 0 1 1 .002-1.186.593.593 0 0 1-.002 1.186m0-1.807a.593.593 0 1 1 .001-1.186.593.593 0 0 1 0 1.186m0-1.808a.593.593 0 1 1 .002-1.185.593.593 0 0 1-.002 1.185m1.855 5.5a.665.665 0 1 1-.002-1.33.665.665 0 0 1 .002 1.33m0-1.807a.665.665 0 1 1-.003-1.33.665.665 0 0 1 .003 1.33m0-1.807a.665.665 0 1 1-.002-1.33.665.665 0 0 1 .002 1.33m1.889 1.883a.73.73 0 1 1 0-1.46.73.73 0 0 1 0 1.46" class="_2b11T7c" style="fill:#0d3880;fill-opacity:1;stroke-width:.26458332" transform="translate(236.795 -270.124)"/></svg>