<svg xmlns="http://www.w3.org/2000/svg" id="my-svg" width="352.047" height="427" aria-roledescription="er" viewBox="19 19 352.047 427" focusable="false"><style><![CDATA[#my-svg{fill:#333}#my-svg,#my-svg svg{font-family:"trebuchet ms",verdana,arial,sans-serif;font-size:16px}#my-svg .entityBox{fill:#ececff;stroke:#9370db}#my-svg .relationshipLabelBox{fill:#f9ffec;opacity:.7;background-color:#f9ffec}#my-svg .relationshipLabelBox rect{opacity:.5}#my-svg .relationshipLine{stroke:#333}#my-svg #MD_PARENT_END,#my-svg #MD_PARENT_START{fill:#f5f5f5!important;stroke:#333!important;stroke-width:1}#my-svg *{--mermaid-font-family:Roboto,'Helvetica Neue',HelveticaNeue,Helvetica,Arial,sans-serif;--mermaid-font-size:14px;--mermaid-er-label-fill:rgba(255, 255, 255, 0.85);--braid-blue-100:#e3f2fb;--braid-blue-300:#98c9f1;--braid-blue-700:#1d559d;--braid-grey-50:#f7f8fb;--braid-grey-100:#eaecf1;--braid-grey-300:#abb3c1;--braid-grey-500:#5a6881;--braid-mint-100:#e2f7f1;--braid-mint-300:#8bdec5;--braid-mint-700:#12784f;--braid-red-300:#fb999a;--braid-red-700:#b91e1e;--braid-yellow-100:#fef8de;--braid-yellow-500:#fdc221}#my-svg text{font-family:var(--mermaid-font-family);font-size:var(--mermaid-font-size)}#my-svg path.er.entityBox{fill:var(--braid-grey-50);stroke:var(--braid-grey-100)}#my-svg path.er.relationshipLabelBox{fill:var(--mermaid-er-label-fill)}#my-svg path.er.relationshipLine{fill:none;stroke:var(--braid-grey-500)}#my-svg text.er{dominant-baseline:central;text-anchor:middle}#my-svg :root{--mermaid-font-family:"trebuchet ms",verdana,arial,sans-serif}]]></style><defs><marker id="MD_PARENT_START" markerHeight="240" markerWidth="190" orient="auto" refX="0" refY="7"><path d="m18 7-9 6-8-6 8-6Z"/></marker></defs><defs><marker id="MD_PARENT_END" markerHeight="28" markerWidth="20" orient="auto" refX="19" refY="7"><path d="m18 7-9 6-8-6 8-6Z"/></marker></defs><defs><marker id="ONLY_ONE_START" markerHeight="18" markerWidth="18" orient="auto" refX="0" refY="9"><path fill="none" stroke="gray" d="M9 0v18m6-18v18"/></marker></defs><defs><marker id="ONLY_ONE_END" markerHeight="18" markerWidth="18" orient="auto" refX="18" refY="9"><path fill="none" stroke="gray" d="M3 0v18M9 0v18"/></marker></defs><defs><marker id="ZERO_OR_ONE_START" markerHeight="18" markerWidth="30" orient="auto" refX="0" refY="9"><circle cx="21" cy="9" r="6" fill="#fff" stroke="gray"/><path fill="none" stroke="gray" d="M9 0v18"/></marker></defs><defs><marker id="ZERO_OR_ONE_END" markerHeight="18" markerWidth="30" orient="auto" refX="30" refY="9"><circle cx="9" cy="9" r="6" fill="#fff" stroke="gray"/><path fill="none" stroke="gray" d="M21 0v18"/></marker></defs><defs><marker id="ONE_OR_MORE_START" markerHeight="36" markerWidth="45" orient="auto" refX="18" refY="18"><path fill="none" stroke="gray" d="M0 18q18-18 36 0-18 18-36 0m42-9v18"/></marker></defs><defs><marker id="ONE_OR_MORE_END" markerHeight="36" markerWidth="45" orient="auto" refX="27" refY="18"><path fill="none" stroke="gray" d="M3 9v18m6-9q18-18 36 0-18 18-36 0"/></marker></defs><defs><marker id="ZERO_OR_MORE_START" markerHeight="36" markerWidth="57" orient="auto" refX="18" refY="18"><circle cx="48" cy="18" r="6" fill="#fff" stroke="gray"/><path fill="none" stroke="gray" d="M0 18q18-18 36 0-18 18-36 0"/></marker></defs><defs><marker id="ZERO_OR_MORE_END" markerHeight="36" markerWidth="57" orient="auto" refX="39" refY="18"><circle cx="9" cy="18" r="6" fill="#fff" stroke="gray"/><path fill="none" stroke="gray" d="M21 18q18-18 36 0-18 18-36 0"/></marker></defs><path marker-end="url(#ZERO_OR_MORE_END)" marker-start="url(#ONLY_ONE_START)" d="m134.292 95-10.715 8.333c-10.715 8.334-32.146 25-42.862 41.667C70 161.667 70 178.333 70 186.667V195" class="er relationshipLine"/><path marker-end="url(#ONE_OR_MORE_END)" marker-start="url(#ONLY_ONE_START)" d="M70 270v100" class="er relationshipLine"/><path stroke-dasharray="8,8" marker-end="url(#ONE_OR_MORE_END)" marker-start="url(#ONE_OR_MORE_START)" d="m230.731 95 10.715 8.333c10.716 8.334 32.147 25 42.862 41.667s10.715 33.333 10.715 41.667V195" class="er relationshipLine"/><g id="entity-CUSTOMER-7c659eae-ee79-5f5d-acd7-c418f8ad1d67" transform="translate(132.512 20)"><path d="M0 0h100v75H0z" class="er entityBox"/><text id="text-entity-CUSTOMER-7c659eae-ee79-5f5d-acd7-c418f8ad1d67" x="0" y="0" class="er entityLabel" transform="translate(50 37.5)">CUSTOMER</text></g><g id="entity-ORDER-36941e20-eb1d-50a3-81c5-00079b43c24a" transform="translate(20 195)"><path d="M0 0h100v75H0z" class="er entityBox"/><text id="text-entity-ORDER-36941e20-eb1d-50a3-81c5-00079b43c24a" x="0" y="0" class="er entityLabel" transform="translate(50 37.5)">ORDER</text></g><g id="entity-LINEITEM-e64ed672-8903-5ccc-ba58-38999100fbd7" transform="translate(20 370)"><path d="M0 0h100v75H0z" class="er entityBox"/><text id="text-entity-LINEITEM-e64ed672-8903-5ccc-ba58-38999100fbd7" x="0" y="0" class="er entityLabel" transform="translate(50 37.5)">LINE-ITEM</text></g><g id="entity-DELIVERYADDRESS-fd3face8-ad78-5943-8bd2-c15cc8ecb9c6" transform="translate(220 195)"><path d="M0 0h150.047v75H0z" class="er entityBox"/><text id="text-entity-DELIVERYADDRESS-fd3face8-ad78-5943-8bd2-c15cc8ecb9c6" x="0" y="0" class="er entityLabel" transform="translate(75.023 37.5)">DELIVERY-ADDRESS</text></g><path d="M69.823 129.347h34.688v14H69.823z" class="er relationshipLabelBox"/><text id="rel1" x="87.167" y="136.347" class="er relationshipLabel">places</text><path d="M47.648 313h44.703v14H47.648z" class="er relationshipLabelBox"/><text id="rel2" x="70" y="320" class="er relationshipLabel">contains</text><path d="M265.177 129.347h25.359v14h-25.359z" class="er relationshipLabelBox"/><text id="rel3" x="277.857" y="136.347" class="er relationshipLabel">uses</text></svg>